<svg viewBox="0 0 24 24" fill="#4a3b59" xmlns="http://www.w3.org/2000/svg">
    <path d="M9,11.75C8.31,11.75 7.75,12.31 7.75,13C7.75,13.69 8.31,14.25 9,14.25C9.69,14.25 10.25,13.69 10.25,13C10.25,12.31 9.69,11.75 9,11.75ZM15,11.75C14.31,11.75 13.75,12.31 13.75,13C13.75,13.69 14.31,14.25 15,14.25C15.69,14.25 16.25,13.69 16.25,13C16.25,12.31 15.69,11.75 15,11.75ZM12,2C6.48,2 2,6.48 2,12C2,17.52 6.48,22 12,22C17.52,22 22,17.52 22,12C22,6.48 17.52,2 12,2ZM12,20C7.59,20 4,16.41 4,12C4,11.71 4.02,11.42 4.05,11.14C6.41,10.09 8.28,8.16 9.26,5.77C11.07,8.33 14,10 17.3,10C18.23,10 19.13,9.87 20,9.62C20,9.75 20,9.87 20,10C20,14.41 16.41,18 12,18" />
</svg>
