<svg viewBox="0 0 24 24" fill="none" xmlns="http://www.w3.org/2000/svg">
    <path d="M16.5 11C16.5 8 15.5 5.5 13 4.5C10.5 3.5 8.5 5 7.5 7.5C6.5 10 7.5 13.5 8 15.5C8.5 17.5 8 19.5 9.5 20.5C11 21.5 14 21.5 15.5 20C17 18.5 16.5 14 16.5 11Z" stroke="#4a3b59" stroke-width="1.2" stroke-linecap="round" stroke-linejoin="round"/>
    <circle cx="15.5" cy="4" r="1.2" fill="#4a3b59"/>
    <circle cx="13" cy="2.5" r="1" fill="#4a3b59"/>
    <circle cx="10.5" cy="2.8" r="0.8" fill="#4a3b59"/>
    <circle cx="8.5" cy="3.8" r="0.7" fill="#4a3b59"/>
    <circle cx="7.2" cy="5.5" r="0.6" fill="#4a3b59"/>
    <path d="M6 15C5 15 4 16 4 17.5C4 19 5.5 20 7 20" stroke="#4a3b59" stroke-width="0.8" stroke-linecap="round" opacity="0.6"/>
    <path d="M18 13C19 13 20 14 20 15.5C20 17 18.5 18 17 18" stroke="#4a3b59" stroke-width="0.8" stroke-linecap="round" opacity="0.6"/>
</svg>
