<svg viewBox="0 0 24 24" fill="#047857" xmlns="http://www.w3.org/2000/svg">
    <path d="M21,12C19.14,11.23 17.06,10.63 14.82,10.23C15.63,9.75 16.32,9.15 16.88,8.45C16.89,8.44 16.91,8.44 16.92,8.43C17.58,7.57 18,6.58 18.25,5.55C18.25,5.54 18.25,5.54 18.26,5.54C18.3,5.4 18.32,5.26 18.35,5.12C18.37,5.01 18.33,4.89 18.24,4.82C18.15,4.75 18.03,4.73 17.92,4.78C17.78,4.84 17.65,4.91 17.51,4.99C16.48,5.56 15.6,6.33 14.88,7.24C14.88,7.24 14.88,7.25 14.87,7.25C14.17,8.14 13.62,9.16 13.26,10.27C12.86,9.58 12.45,8.9 12.04,8.22V3.06C12.04,3 12,2.83 11.9,2.78C11.83,2.73 11.75,2.75 11.68,2.78L11.5,2.86L11.32,2.78C11.25,2.75 11.17,2.73 11.1,2.78C11,2.83 10.96,3 10.96,3.06V8.22C10.55,8.9 10.14,9.58 9.74,10.27C9.38,9.16 8.83,8.14 8.13,7.25C8.12,7.25 8.12,7.24 8.12,7.24C7.4,6.33 6.52,5.56 5.49,4.99C5.35,4.91 5.22,4.84 5.08,4.78C4.97,4.73 4.85,4.75 4.76,4.82C4.67,4.89 4.63,5.01 4.65,5.12C4.68,5.26 4.7,5.4 4.74,5.54C4.75,5.54 4.75,5.54 4.75,5.55C5,6.58 5.42,7.57 6.08,8.43C6.09,8.44 6.11,8.44 6.12,8.45C6.68,9.15 7.37,9.75 8.18,10.23C5.94,10.63 3.86,11.23 2,12L1.87,12.06C1.76,12.11 1.69,12.22 1.7,12.33C1.71,12.45 1.79,12.54 1.9,12.57C2.04,12.61 2.18,12.64 2.32,12.67C3.47,12.92 4.65,13.06 5.86,13.1C5.87,13.1 5.88,13.1 5.89,13.1C7.03,13.13 8.13,13.04 9.17,12.83C8.84,13.56 8.5,14.28 8.17,15.01C7.2,14.47 6.12,14.15 5,14.15C4.85,14.15 4.7,14.16 4.55,14.17C4.43,14.18 4.34,14.27 4.33,14.39C4.33,14.5 4.4,14.61 4.5,14.66L4.67,14.73C5.34,15.06 5.95,15.5 6.47,16.03C6.48,16.04 6.49,16.05 6.5,16.06C7.52,17.13 8.18,18.5 8.35,20C8.36,20.12 8.45,20.21 8.57,20.22C8.58,20.22 8.6,20.22 8.61,20.22C8.72,20.22 8.81,20.15 8.84,20.05C8.88,19.92 8.91,19.78 8.94,19.64C9.17,18.56 9.61,17.56 10.22,16.67C10.6,17.06 10.97,17.44 11.35,17.83V21.5C11.35,21.64 11.46,21.75 11.6,21.75C11.74,21.75 11.85,21.64 11.85,21.5V17.83C12.23,17.44 12.6,17.06 12.98,16.67C13.59,17.56 14.03,18.56 14.26,19.64C14.29,19.78 14.32,19.92 14.36,20.05C14.39,20.15 14.48,20.22 14.59,20.22C14.6,20.22 14.62,20.22 14.63,20.22C14.75,20.21 14.84,20.12 14.85,20C15.02,18.5 15.68,17.13 16.7,16.06C16.71,16.05 16.72,16.04 16.73,16.03C17.25,15.5 17.86,15.06 18.53,14.73L18.7,14.66C18.8,14.61 18.87,14.5 18.87,14.39C18.86,14.27 18.77,14.18 18.65,14.17C18.5,14.16 18.35,14.15 18.2,14.15C17.08,14.15 16,14.47 15.03,15.01C14.7,14.28 14.36,13.56 14.03,12.83C15.07,13.04 16.17,13.13 17.31,13.1C17.32,13.1 17.33,13.1 17.34,13.1C18.55,13.06 19.73,12.92 20.88,12.67C21.02,12.64 21.16,12.61 21.3,12.57C21.41,12.54 21.49,12.45 21.5,12.33C21.51,12.22 21.44,12.11 21.33,12.06L21,12Z"/>
</svg>
